<svg xmlns="http://www.w3.org/2000/svg" xmlns:xlink="http://www.w3.org/1999/xlink" version="1.1" width="256" height="256" viewBox="0 0 256 256" xml:space="preserve">

<defs>
</defs>
<g style="stroke: none; stroke-width: 0; stroke-dasharray: none; stroke-linecap: butt; stroke-linejoin: miter; stroke-miterlimit: 10; fill: none; fill-rule: nonzero; opacity: 1;" transform="translate(1.4065934065934016 1.4065934065934016) scale(2.81 2.81)" >
	<circle cx="45" cy="45" r="45" style="stroke: none; stroke-width: 1; stroke-dasharray: none; stroke-linecap: butt; stroke-linejoin: miter; stroke-miterlimit: 10; fill: rgb(32,196,203); fill-rule: nonzero; opacity: 1;" transform="  matrix(1 0 0 1 0 0) "/>
	<path d="M 20.323 24.319 c -3.17 3.17 -3.17 8.31 0 11.48 L 41.11 56.586 l 1.704 -1.704 l 19.71 19.71 c 1.21 1.21 3.191 1.21 4.401 0 c 1.21 -1.21 1.21 -3.191 0 -4.401 l -19.71 -19.71 L 24.336 27.603 l -3.649 -3.649 L 20.323 24.319 z" style="stroke: none; stroke-width: 1; stroke-dasharray: none; stroke-linecap: butt; stroke-linejoin: miter; stroke-miterlimit: 10; fill: rgb(27,167,173); fill-rule: nonzero; opacity: 1;" transform=" matrix(1 0 0 1 0 0) " stroke-linecap="round" />
	<path d="M 32.72 53.88 L 16.408 70.192 c -1.21 1.21 -1.21 3.191 0 4.401 c 1.21 1.21 3.191 1.21 4.401 0 L 37.12 58.28 L 32.72 53.88 z" style="stroke: none; stroke-width: 1; stroke-dasharray: none; stroke-linecap: butt; stroke-linejoin: miter; stroke-miterlimit: 10; fill: rgb(27,167,173); fill-rule: nonzero; opacity: 1;" transform=" matrix(1 0 0 1 0 0) " stroke-linecap="round" />
	<path d="M 67.051 31.257 l -9.199 9.199 c -0.608 0.608 -1.604 0.608 -2.212 0 c -0.608 -0.608 -0.608 -1.604 0 -2.212 l 9.199 -9.199 l -2.885 -2.885 l -9.199 9.199 c -0.608 0.608 -1.604 0.608 -2.212 0 c -0.608 -0.608 -0.608 -1.604 0 -2.212 l 9.199 -9.199 l -3.227 -3.227 L 42.567 34.671 c -1.242 1.242 -1.242 3.273 0 4.515 l 2.423 2.423 l -0.949 0.949 l 4.401 4.401 l 0.949 -0.949 l 2.423 2.423 c 1.242 1.242 3.273 1.242 4.515 0 l 13.949 -13.949 L 67.051 31.257 z" style="stroke: none; stroke-width: 1; stroke-dasharray: none; stroke-linecap: butt; stroke-linejoin: miter; stroke-miterlimit: 10; fill: rgb(27,167,173); fill-rule: nonzero; opacity: 1;" transform=" matrix(1 0 0 1 0 0) " stroke-linecap="round" />
	<path d="M 23.545 21.096 c -3.17 3.17 -3.17 8.31 0 11.48 l 20.787 20.787 l 1.704 -1.704 l 19.71 19.71 c 1.21 1.21 3.191 1.21 4.401 0 c 1.21 -1.21 1.21 -3.191 0 -4.401 l -19.71 -19.71 L 27.559 24.381 l -3.649 -3.649 L 23.545 21.096 z" style="stroke: none; stroke-width: 1; stroke-dasharray: none; stroke-linecap: butt; stroke-linejoin: miter; stroke-miterlimit: 10; fill: rgb(255,255,255); fill-rule: nonzero; opacity: 1;" transform=" matrix(1 0 0 1 0 0) " stroke-linecap="round" />
	<path d="M 35.942 50.657 L 19.63 66.969 c -1.21 1.21 -1.21 3.191 0 4.401 c 1.21 1.21 3.191 1.21 4.401 0 l 16.312 -16.312 L 35.942 50.657 z" style="stroke: none; stroke-width: 1; stroke-dasharray: none; stroke-linecap: butt; stroke-linejoin: miter; stroke-miterlimit: 10; fill: rgb(255,255,255); fill-rule: nonzero; opacity: 1;" transform=" matrix(1 0 0 1 0 0) " stroke-linecap="round" />
	<path d="M 70.273 28.035 l -9.199 9.199 c -0.608 0.608 -1.604 0.608 -2.212 0 c -0.608 -0.608 -0.608 -1.604 0 -2.212 l 9.199 -9.199 l -2.885 -2.885 l -9.199 9.199 c -0.608 0.608 -1.604 0.608 -2.212 0 c -0.608 -0.608 -0.608 -1.604 0 -2.212 l 9.199 -9.199 L 59.738 17.5 L 45.789 31.449 c -1.242 1.242 -1.242 3.273 0 4.515 l 2.423 2.423 l -0.949 0.949 l 4.401 4.401 l 0.949 -0.949 l 2.423 2.423 c 1.242 1.242 3.273 1.242 4.515 0 L 73.5 31.262 L 70.273 28.035 z" style="stroke: none; stroke-width: 1; stroke-dasharray: none; stroke-linecap: butt; stroke-linejoin: miter; stroke-miterlimit: 10; fill: rgb(255,255,255); fill-rule: nonzero; opacity: 1;" transform=" matrix(1 0 0 1 0 0) " stroke-linecap="round" />
</g>
</svg>